<?xml version="1.0" encoding="UTF-8" standalone="no"?>
<!DOCTYPE svg PUBLIC "-//W3C//DTD SVG 1.1//EN" "http://www.w3.org/Graphics/SVG/1.1/DTD/svg11.dtd">
<svg width="100%" height="100%" viewBox="0 0 100 100" version="1.1" xmlns="http://www.w3.org/2000/svg" xmlns:xlink="http://www.w3.org/1999/xlink" xml:space="preserve" xmlns:serif="http://www.serif.com/" style="fill-rule:evenodd;clip-rule:evenodd;stroke-linejoin:round;">
    <g transform="matrix(0.15,0,0,0.15,-9.99997,-7.99995)">
        <path id="Amp" d="M400,53.333C309.625,53.333 256.141,122.272 248.073,133.333L160,133.333C130.533,133.333 106.667,157.2 106.667,186.667L106.667,640C106.667,669.467 130.533,693.333 160,693.333L186.667,693.333C186.667,707.962 198.704,720 213.333,720C227.962,720 240,707.962 240,693.333L560,693.333C560,707.962 572.038,720 586.667,720C601.296,720 613.333,707.962 613.333,693.333L640,693.333C669.467,693.333 693.333,669.467 693.333,640L693.333,186.667C693.333,157.2 669.467,133.333 640,133.333L551.823,133.333C544.915,124.242 488.551,53.333 400,53.333ZM400,106.667C427.593,106.667 452.799,119.427 472.5,133.333L325.156,133.333C344.302,119.476 369.75,106.667 400,106.667ZM173.333,186.667L626.667,186.667C634.027,186.667 640,192.64 640,200L640,280C640,287.36 634.027,293.333 626.667,293.333L173.333,293.333C165.973,293.333 160,287.36 160,280L160,200C160,192.64 165.973,186.667 173.333,186.667ZM240,213.333C225.371,213.333 213.333,225.371 213.333,240C213.333,254.629 225.371,266.667 240,266.667C254.629,266.667 266.667,254.629 266.667,240C266.667,225.371 254.629,213.333 240,213.333ZM346.667,213.333C332.038,213.333 320,225.371 320,240C320,254.629 332.038,266.667 346.667,266.667C361.296,266.667 373.333,254.629 373.333,240C373.333,225.371 361.296,213.333 346.667,213.333ZM453.333,213.333C438.704,213.333 426.667,225.371 426.667,240C426.667,254.629 438.704,266.667 453.333,266.667C467.962,266.667 480,254.629 480,240C480,225.371 467.962,213.333 453.333,213.333ZM560,213.333C545.371,213.333 533.333,225.371 533.333,240C533.333,254.629 545.371,266.667 560,266.667C574.629,266.667 586.667,254.629 586.667,240C586.667,225.371 574.629,213.333 560,213.333ZM200,346.667C207.36,346.667 213.333,352.64 213.333,360C213.333,367.36 207.36,373.333 200,373.333C192.64,373.333 186.667,367.36 186.667,360C186.667,352.64 192.64,346.667 200,346.667ZM253.333,346.667C260.693,346.667 266.667,352.64 266.667,360C266.667,367.36 260.693,373.333 253.333,373.333C245.973,373.333 240,367.36 240,360C240,352.64 245.973,346.667 253.333,346.667ZM306.667,346.667C314.027,346.667 320,352.64 320,360C320,367.36 314.027,373.333 306.667,373.333C299.307,373.333 293.333,367.36 293.333,360C293.333,352.64 299.307,346.667 306.667,346.667ZM360,346.667C367.36,346.667 373.333,352.64 373.333,360C373.333,367.36 367.36,373.333 360,373.333C352.64,373.333 346.667,367.36 346.667,360C346.667,352.64 352.64,346.667 360,346.667ZM413.333,346.667C420.693,346.667 426.667,352.64 426.667,360C426.667,367.36 420.693,373.333 413.333,373.333C405.973,373.333 400,367.36 400,360C400,352.64 405.973,346.667 413.333,346.667ZM466.667,346.667C474.027,346.667 480,352.64 480,360C480,367.36 474.027,373.333 466.667,373.333C459.307,373.333 453.333,367.36 453.333,360C453.333,352.64 459.307,346.667 466.667,346.667ZM520,346.667C527.36,346.667 533.333,352.64 533.333,360C533.333,367.36 527.36,373.333 520,373.333C512.64,373.333 506.667,367.36 506.667,360C506.667,352.64 512.64,346.667 520,346.667ZM573.333,346.667C580.693,346.667 586.667,352.64 586.667,360C586.667,367.36 580.693,373.333 573.333,373.333C565.973,373.333 560,367.36 560,360C560,352.64 565.973,346.667 573.333,346.667ZM626.667,346.667C634.027,346.667 640,352.64 640,360C640,367.36 634.027,373.333 626.667,373.333C619.307,373.333 613.333,367.36 613.333,360C613.333,352.64 619.307,346.667 626.667,346.667ZM173.333,400C180.693,400 186.667,405.973 186.667,413.333C186.667,420.693 180.693,426.667 173.333,426.667C165.973,426.667 160,420.693 160,413.333C160,405.973 165.973,400 173.333,400ZM226.667,400C234.027,400 240,405.973 240,413.333C240,420.693 234.027,426.667 226.667,426.667C219.307,426.667 213.333,420.693 213.333,413.333C213.333,405.973 219.307,400 226.667,400ZM280,400C287.36,400 293.333,405.973 293.333,413.333C293.333,420.693 287.36,426.667 280,426.667C272.64,426.667 266.667,420.693 266.667,413.333C266.667,405.973 272.64,400 280,400ZM333.333,400C340.693,400 346.667,405.973 346.667,413.333C346.667,420.693 340.693,426.667 333.333,426.667C325.973,426.667 320,420.693 320,413.333C320,405.973 325.973,400 333.333,400ZM386.667,400C394.027,400 400,405.973 400,413.333C400,420.693 394.027,426.667 386.667,426.667C379.307,426.667 373.333,420.693 373.333,413.333C373.333,405.973 379.307,400 386.667,400ZM440,400C447.36,400 453.333,405.973 453.333,413.333C453.333,420.693 447.36,426.667 440,426.667C432.64,426.667 426.667,420.693 426.667,413.333C426.667,405.973 432.64,400 440,400ZM493.333,400C500.693,400 506.667,405.973 506.667,413.333C506.667,420.693 500.693,426.667 493.333,426.667C485.973,426.667 480,420.693 480,413.333C480,405.973 485.973,400 493.333,400ZM546.667,400C554.027,400 560,405.973 560,413.333C560,420.693 554.027,426.667 546.667,426.667C539.307,426.667 533.333,420.693 533.333,413.333C533.333,405.973 539.307,400 546.667,400ZM600,400C607.36,400 613.333,405.973 613.333,413.333C613.333,420.693 607.36,426.667 600,426.667C592.64,426.667 586.667,420.693 586.667,413.333C586.667,405.973 592.64,400 600,400ZM200,453.333C207.36,453.333 213.333,459.307 213.333,466.667C213.333,474.027 207.36,480 200,480C192.64,480 186.667,474.027 186.667,466.667C186.667,459.307 192.64,453.333 200,453.333ZM253.333,453.333C260.693,453.333 266.667,459.307 266.667,466.667C266.667,474.027 260.693,480 253.333,480C245.973,480 240,474.027 240,466.667C240,459.307 245.973,453.333 253.333,453.333ZM306.667,453.333C314.027,453.333 320,459.307 320,466.667C320,474.027 314.027,480 306.667,480C299.307,480 293.333,474.027 293.333,466.667C293.333,459.307 299.307,453.333 306.667,453.333ZM360,453.333C367.36,453.333 373.333,459.307 373.333,466.667C373.333,474.027 367.36,480 360,480C352.64,480 346.667,474.027 346.667,466.667C346.667,459.307 352.64,453.333 360,453.333ZM413.333,453.333C420.693,453.333 426.667,459.307 426.667,466.667C426.667,474.027 420.693,480 413.333,480C405.973,480 400,474.027 400,466.667C400,459.307 405.973,453.333 413.333,453.333ZM466.667,453.333C474.027,453.333 480,459.307 480,466.667C480,474.027 474.027,480 466.667,480C459.307,480 453.333,474.027 453.333,466.667C453.333,459.307 459.307,453.333 466.667,453.333ZM520,453.333C527.36,453.333 533.333,459.307 533.333,466.667C533.333,474.027 527.36,480 520,480C512.64,480 506.667,474.027 506.667,466.667C506.667,459.307 512.64,453.333 520,453.333ZM573.333,453.333C580.693,453.333 586.667,459.307 586.667,466.667C586.667,474.027 580.693,480 573.333,480C565.973,480 560,474.027 560,466.667C560,459.307 565.973,453.333 573.333,453.333ZM626.667,453.333C634.027,453.333 640,459.307 640,466.667C640,474.027 634.027,480 626.667,480C619.307,480 613.333,474.027 613.333,466.667C613.333,459.307 619.307,453.333 626.667,453.333ZM173.333,506.667C180.693,506.667 186.667,512.64 186.667,520C186.667,527.36 180.693,533.333 173.333,533.333C165.973,533.333 160,527.36 160,520C160,512.64 165.973,506.667 173.333,506.667ZM226.667,506.667C234.027,506.667 240,512.64 240,520C240,527.36 234.027,533.333 226.667,533.333C219.307,533.333 213.333,527.36 213.333,520C213.333,512.64 219.307,506.667 226.667,506.667ZM280,506.667C287.36,506.667 293.333,512.64 293.333,520C293.333,527.36 287.36,533.333 280,533.333C272.64,533.333 266.667,527.36 266.667,520C266.667,512.64 272.64,506.667 280,506.667ZM333.333,506.667C340.693,506.667 346.667,512.64 346.667,520C346.667,527.36 340.693,533.333 333.333,533.333C325.973,533.333 320,527.36 320,520C320,512.64 325.973,506.667 333.333,506.667ZM386.667,506.667C394.027,506.667 400,512.64 400,520C400,527.36 394.027,533.333 386.667,533.333C379.307,533.333 373.333,527.36 373.333,520C373.333,512.64 379.307,506.667 386.667,506.667ZM440,506.667C447.36,506.667 453.333,512.64 453.333,520C453.333,527.36 447.36,533.333 440,533.333C432.64,533.333 426.667,527.36 426.667,520C426.667,512.64 432.64,506.667 440,506.667ZM493.333,506.667C500.693,506.667 506.667,512.64 506.667,520C506.667,527.36 500.693,533.333 493.333,533.333C485.973,533.333 480,527.36 480,520C480,512.64 485.973,506.667 493.333,506.667ZM546.667,506.667C554.027,506.667 560,512.64 560,520C560,527.36 554.027,533.333 546.667,533.333C539.307,533.333 533.333,527.36 533.333,520C533.333,512.64 539.307,506.667 546.667,506.667ZM600,506.667C607.36,506.667 613.333,512.64 613.333,520C613.333,527.36 607.36,533.333 600,533.333C592.64,533.333 586.667,527.36 586.667,520C586.667,512.64 592.64,506.667 600,506.667ZM200,560C207.36,560 213.333,565.973 213.333,573.333C213.333,580.693 207.36,586.667 200,586.667C192.64,586.667 186.667,580.693 186.667,573.333C186.667,565.973 192.64,560 200,560ZM253.333,560C260.693,560 266.667,565.973 266.667,573.333C266.667,580.693 260.693,586.667 253.333,586.667C245.973,586.667 240,580.693 240,573.333C240,565.973 245.973,560 253.333,560ZM306.667,560C314.027,560 320,565.973 320,573.333C320,580.693 314.027,586.667 306.667,586.667C299.307,586.667 293.333,580.693 293.333,573.333C293.333,565.973 299.307,560 306.667,560ZM360,560C367.36,560 373.333,565.973 373.333,573.333C373.333,580.693 367.36,586.667 360,586.667C352.64,586.667 346.667,580.693 346.667,573.333C346.667,565.973 352.64,560 360,560ZM413.333,560C420.693,560 426.667,565.973 426.667,573.333C426.667,580.693 420.693,586.667 413.333,586.667C405.973,586.667 400,580.693 400,573.333C400,565.973 405.973,560 413.333,560ZM466.667,560C474.027,560 480,565.973 480,573.333C480,580.693 474.027,586.667 466.667,586.667C459.307,586.667 453.333,580.693 453.333,573.333C453.333,565.973 459.307,560 466.667,560ZM520,560C527.36,560 533.333,565.973 533.333,573.333C533.333,580.693 527.36,586.667 520,586.667C512.64,586.667 506.667,580.693 506.667,573.333C506.667,565.973 512.64,560 520,560ZM573.333,560C580.693,560 586.667,565.973 586.667,573.333C586.667,580.693 580.693,586.667 573.333,586.667C565.973,586.667 560,580.693 560,573.333C560,565.973 565.973,560 573.333,560ZM626.667,560C634.027,560 640,565.973 640,573.333C640,580.693 634.027,586.667 626.667,586.667C619.307,586.667 613.333,580.693 613.333,573.333C613.333,565.973 619.307,560 626.667,560ZM173.333,613.333C180.693,613.333 186.667,619.307 186.667,626.667C186.667,634.027 180.693,640 173.333,640C165.973,640 160,634.027 160,626.667C160,619.307 165.973,613.333 173.333,613.333ZM226.667,613.333C234.027,613.333 240,619.307 240,626.667C240,634.027 234.027,640 226.667,640C219.307,640 213.333,634.027 213.333,626.667C213.333,619.307 219.307,613.333 226.667,613.333ZM280,613.333C287.36,613.333 293.333,619.307 293.333,626.667C293.333,634.027 287.36,640 280,640C272.64,640 266.667,634.027 266.667,626.667C266.667,619.307 272.64,613.333 280,613.333ZM333.333,613.333C340.693,613.333 346.667,619.307 346.667,626.667C346.667,634.027 340.693,640 333.333,640C325.973,640 320,634.027 320,626.667C320,619.307 325.973,613.333 333.333,613.333ZM386.667,613.333C394.027,613.333 400,619.307 400,626.667C400,634.027 394.027,640 386.667,640C379.307,640 373.333,634.027 373.333,626.667C373.333,619.307 379.307,613.333 386.667,613.333ZM440,613.333C447.36,613.333 453.333,619.307 453.333,626.667C453.333,634.027 447.36,640 440,640C432.64,640 426.667,634.027 426.667,626.667C426.667,619.307 432.64,613.333 440,613.333ZM493.333,613.333C500.693,613.333 506.667,619.307 506.667,626.667C506.667,634.027 500.693,640 493.333,640C485.973,640 480,634.027 480,626.667C480,619.307 485.973,613.333 493.333,613.333ZM546.667,613.333C554.027,613.333 560,619.307 560,626.667C560,634.027 554.027,640 546.667,640C539.307,640 533.333,634.027 533.333,626.667C533.333,619.307 539.307,613.333 546.667,613.333ZM600,613.333C607.36,613.333 613.333,619.307 613.333,626.667C613.333,634.027 607.36,640 600,640C592.64,640 586.667,634.027 586.667,626.667C586.667,619.307 592.64,613.333 600,613.333Z" style="fill:rgb(222,222,222);fill-rule:nonzero;stroke:black;stroke-width:31.75px;"/>
    </g>
</svg>
