<?xml version="1.0" encoding="UTF-8" standalone="no"?>
<!DOCTYPE svg PUBLIC "-//W3C//DTD SVG 1.1//EN" "http://www.w3.org/Graphics/SVG/1.1/DTD/svg11.dtd">
<svg width="100%" height="100%" viewBox="0 0 100 100" version="1.1" xmlns="http://www.w3.org/2000/svg" xmlns:xlink="http://www.w3.org/1999/xlink" xml:space="preserve" xmlns:serif="http://www.serif.com/" style="fill-rule:evenodd;clip-rule:evenodd;stroke-linejoin:round;stroke-miterlimit:2;">
    <g transform="matrix(0.137012,0,0,0.137012,-4.80432,-5.75641)">
        <path d="M356.563,42.016C332.813,41.625 313.281,94.297 337.344,104.203L351.25,109.844L379.063,85.625L376.25,48.906L362.656,43.281C360.938,42.609 359.375,42.219 357.656,42.062L356.563,42.062L356.563,42.016ZM566.563,54.391L562.969,54.391C551.406,54.859 539.063,57.703 526.563,63.375C493.438,78.484 458.437,114.422 433.281,181.719L272.5,616.719L272.344,617.031L272.344,617.344C273.75,618.125 277.969,620.312 284.844,623.594C300.156,631.094 322.344,648.125 325.625,684.219L325.625,685L324.063,771.875L475,771.875C474.844,744.375 477.187,717.969 487.656,691.406C505.938,645.469 549.063,605.625 639.219,571.094C639.219,570.781 639.219,571.094 639.375,570.469C639.844,567.344 640,561.094 639.375,553.281C637.813,537.5 633.125,514.375 625.938,487.344C611.563,433.125 587.188,362.031 559.688,292.188L555.938,282.5L564.063,275.938C620.469,231.875 643.906,187.813 648.125,151.625C652.344,115.594 637.969,86.813 614.844,69.984C601.25,60.125 584.688,54.375 566.563,54.328L566.563,54.391ZM407.031,81.938L408.125,97.578L396.25,107.891L430.156,121.844C432.031,118.453 434.063,115.156 436.094,111.953L442.344,96.5L407.031,81.938ZM514.844,110.938C528.594,110.938 539.844,122.125 539.844,135.938C539.844,149.75 528.594,160.938 514.844,160.938C501.094,160.938 489.844,149.75 489.844,135.938C489.844,122.125 501.094,110.938 514.844,110.938ZM301.25,188.594C277.5,188.125 257.656,240.781 282.031,250.781L295.781,256.406L323.594,232.188L320.938,195.313L307.188,189.688C305.469,189.063 303.906,188.75 302.344,188.594L301.25,188.594ZM351.563,228.437L352.656,244.062L340.781,254.375L371.875,267.031L381.563,240.781L351.563,228.437ZM463.438,259.375C477.188,259.375 488.438,270.625 488.438,284.375C488.438,298.125 477.188,309.375 463.438,309.375C449.688,309.375 438.438,298.125 438.438,284.375C438.438,270.625 449.688,259.375 463.438,259.375ZM245,338.438C221.094,337.969 201.563,390.625 225.625,400.625L239.531,406.25L267.344,382.031L264.531,345.156L250.938,339.531C249.219,338.906 247.656,338.594 246.094,338.438L245,338.438ZM295.313,378.281L296.406,393.906L284.531,404.219L316.406,417.188L326.094,390.938L295.313,378.281ZM400.313,408.437C414.063,408.437 425.313,419.687 425.313,433.437C425.313,447.188 414.063,458.437 400.313,458.437C386.562,458.437 375.313,447.188 375.313,433.437C375.313,419.687 386.562,408.437 400.313,408.437ZM181.406,493.437C157.656,492.969 138,545.625 162.188,555.625L175.938,561.25L203.75,537.031L200.938,500.156L187.344,494.531C185.625,493.906 184.063,493.594 182.5,493.437L181.406,493.437ZM231.719,533.281L232.813,548.906L220.938,559.219L256.563,573.75L267.188,547.813L231.719,533.281ZM340,562.187C353.75,562.187 365,573.437 365,587.187C365,600.938 353.75,612.187 340,612.187C326.25,612.187 315,600.938 315,587.187C315,573.437 326.25,562.187 340,562.187Z" style="fill:rgb(222,222,222);fill-rule:nonzero;"/>
    </g>
</svg>
