<?xml version="1.0" encoding="UTF-8" standalone="no"?>
<!DOCTYPE svg PUBLIC "-//W3C//DTD SVG 1.1//EN" "http://www.w3.org/Graphics/SVG/1.1/DTD/svg11.dtd">
<svg width="100%" height="100%" viewBox="0 0 100 100" version="1.1" xmlns="http://www.w3.org/2000/svg" xmlns:xlink="http://www.w3.org/1999/xlink" xml:space="preserve" xmlns:serif="http://www.serif.com/" style="fill-rule:evenodd;clip-rule:evenodd;stroke-linejoin:round;">
    <g id="Custom" transform="matrix(2,0,0,2,-10.4195,-10)">
        <g transform="matrix(0.103883,0,0,0.103883,-11.3382,-11.5686)">
            <path d="M399.28,404.8L360,365.52C357.941,363.286 355.038,362.014 352,362.014C348.962,362.014 346.059,363.286 344,365.52L328.48,381.52C326.337,383.53 325.12,386.341 325.12,389.28C325.12,392.219 326.337,395.03 328.48,397.04L384,451.52C388.076,455.765 393.715,458.165 399.6,458.16C405.463,458.171 411.08,455.769 415.12,451.52L528,338.16C530.279,336.127 531.584,333.214 531.584,330.16C531.584,327.106 530.279,324.193 528,322.16L512.48,306.64C510.455,304.493 507.631,303.274 504.68,303.274C501.729,303.274 498.905,304.493 496.88,306.64L399.28,404.8Z" style="fill-rule:nonzero;stroke:rgb(222,222,222);stroke-width:22.92px;"/>
        </g>
        <g transform="matrix(0.103883,0,0,0.103883,-11.3382,-11.5686)">
            <path d="M574.48,433.2C578.747,410.466 578.747,387.134 574.48,364.4L611.28,333.2C623.591,322.775 626.946,304.994 619.28,290.8L603.28,262.8C597.245,252.707 586.238,246.592 574.48,246.8C570.613,246.741 566.783,247.562 563.28,249.2L516.88,266C499.547,250.827 479.445,239.146 457.68,231.6L449.68,184.4C446.463,169.188 432.393,158.55 416.88,159.6L384.88,159.6C369.299,158.296 355.071,169.053 352.08,184.4L344.08,230.8C321.966,238.104 301.556,249.806 284.08,265.2L236.88,248.4C233.239,247.219 229.486,246.415 225.68,246C213.958,245.938 203.02,252.014 196.88,262L180.88,290C172.817,304.121 176.226,322.188 188.88,332.4L225.68,363.6C223.427,374.925 222.354,386.454 222.48,398C222.317,409.548 223.39,421.08 225.68,432.4L188.88,464C176.569,474.425 173.214,492.206 180.88,506.4L196.88,534.4C202.915,544.493 213.922,550.608 225.68,550.4C229.547,550.459 233.377,549.638 236.88,548L283.28,531.2C300.613,546.373 320.715,558.054 342.48,565.6L350.48,613.6C353.222,629.432 367.214,641.036 383.28,640.8L415.28,640.8C431.508,640.706 445.44,628.812 448.08,612.8L456.08,564.8C479.2,556.981 500.449,544.449 518.48,528L561.68,544.8C565.594,545.981 569.613,546.785 573.68,547.2C585.402,547.262 596.34,541.186 602.48,531.2L617.68,504.8C626.507,491.97 623.67,474.235 611.28,464.8L574.48,433.2ZM547.36,358.48L510.96,394.96L510.96,401.2C510.961,401.338 510.961,401.476 510.961,401.614C510.961,462.397 460.944,512.414 400.161,512.414C339.378,512.414 289.361,462.397 289.361,401.614C289.361,340.831 339.378,290.814 400.161,290.814C420.317,290.814 440.097,296.314 457.36,306.72L476.96,287.2C484.233,279.83 494.166,275.677 504.52,275.677C514.874,275.677 524.807,279.83 532.08,287.2L548.08,303.2C555.891,311.009 560.049,321.767 559.52,332.8C559.016,342.626 554.642,351.863 547.36,358.48Z" style="fill:rgb(222,222,222);fill-rule:nonzero;"/>
        </g>
    </g>
</svg>
