<?xml version="1.0" encoding="UTF-8" standalone="no"?>
<!DOCTYPE svg PUBLIC "-//W3C//DTD SVG 1.1//EN" "http://www.w3.org/Graphics/SVG/1.1/DTD/svg11.dtd">
<svg width="100%" height="100%" viewBox="0 0 100 100" version="1.1" xmlns="http://www.w3.org/2000/svg" xmlns:xlink="http://www.w3.org/1999/xlink" xml:space="preserve" xmlns:serif="http://www.serif.com/" style="fill-rule:evenodd;clip-rule:evenodd;stroke-linejoin:round;">
    <g id="Folder" transform="matrix(0.166667,0,0,0.166667,-16.6667,-16.6667)">
        <path d="M100,273.333C100,235.996 100,217.328 107.266,203.067C113.658,190.523 123.856,180.324 136.401,173.933C150.661,166.667 169.33,166.667 206.667,166.667L322.484,166.667C338.79,166.667 346.943,166.667 354.617,168.509C361.417,170.142 367.92,172.835 373.887,176.491C380.613,180.613 386.38,186.378 397.91,197.909L402.09,202.091C413.62,213.622 419.387,219.387 426.113,223.509C432.08,227.165 438.583,229.858 445.383,231.491C453.057,233.333 461.21,233.333 477.517,233.333L593.333,233.333C630.67,233.333 649.34,233.333 663.6,240.6C676.143,246.991 686.343,257.19 692.733,269.734C700,283.995 700,302.663 700,340L700,526.667C700,564.003 700,582.673 692.733,596.933C686.343,609.477 676.143,619.677 663.6,626.067C649.34,633.333 630.67,633.333 593.333,633.333L206.667,633.333C169.33,633.333 150.661,633.333 136.401,626.067C123.856,619.677 113.658,609.477 107.266,596.933C100,582.673 100,564.003 100,526.667L100,273.333Z" style="fill-rule:nonzero;stroke:rgb(222,222,222);stroke-width:21.43px;"/>
    </g>
</svg>
