<?xml version="1.0" encoding="UTF-8" standalone="no"?>
<!DOCTYPE svg PUBLIC "-//W3C//DTD SVG 1.1//EN" "http://www.w3.org/Graphics/SVG/1.1/DTD/svg11.dtd">
<svg width="100%" height="100%" viewBox="0 0 100 100" version="1.1" xmlns="http://www.w3.org/2000/svg" xmlns:xlink="http://www.w3.org/1999/xlink" xml:space="preserve" xmlns:serif="http://www.serif.com/" style="fill-rule:evenodd;clip-rule:evenodd;stroke-linejoin:round;">
    <g id="FX" transform="matrix(0.136129,0,0,0.136129,-4.45155,-4.45155)">
        <path d="M410.714,647.6C422.099,647.6 428.46,643.917 436.83,631.864L570.76,449.051L572.767,449.051L705.694,632.199C713.394,643.583 721.096,647.6 733.15,647.6C750.56,647.6 763.28,635.211 763.28,618.136C763.28,610.77 760.606,603.069 756.251,596.707L610.937,400.837L759.934,201.283C764.954,194.921 767.299,187.891 767.299,180.86C767.299,165.123 754.243,152.4 738.506,152.4C726.114,152.4 719.086,156.417 710.714,168.471L577.12,353.627L575.111,353.627L442.189,168.471C433.817,156.083 427.12,152.4 414.063,152.4C396.317,152.4 383.594,164.453 383.594,181.194C383.594,188.56 385.937,195.927 390.96,202.623L534.599,398.829L388.281,598.381C383.259,605.079 380.916,612.11 380.916,619.14C380.916,635.211 393.973,647.6 410.714,647.6ZM63.504,646.261C82.254,646.261 94.643,634.207 94.643,615.123L94.643,431.976L291.183,431.976C307.59,431.976 319.309,421.596 319.309,405.19C319.309,388.449 307.59,378.07 291.183,378.07L94.643,378.07L94.643,214.676L310.603,214.676C327.009,214.676 339.063,204.297 339.063,187.221C339.063,170.146 327.009,159.431 310.603,159.431L63.17,159.431C44.42,159.431 32.701,171.484 32.701,190.234L32.701,615.123C32.701,634.207 44.42,646.261 63.504,646.261Z" style="fill-rule:nonzero;stroke:rgb(222,222,222);stroke-width:41.27px;"/>
    </g>
</svg>
