<?xml version="1.0" encoding="UTF-8" standalone="no"?>
<!DOCTYPE svg PUBLIC "-//W3C//DTD SVG 1.1//EN" "http://www.w3.org/Graphics/SVG/1.1/DTD/svg11.dtd">
<svg width="100%" height="100%" viewBox="0 0 100 100" version="1.1" xmlns="http://www.w3.org/2000/svg" xmlns:xlink="http://www.w3.org/1999/xlink" xml:space="preserve" xmlns:serif="http://www.serif.com/" style="fill-rule:evenodd;clip-rule:evenodd;stroke-linejoin:round;stroke-miterlimit:2;">
    <g id="Guitar" transform="matrix(0.139106,0,0,0.139106,-5.6425,-5.72074)">
        <path d="M238.438,41.125L214.375,690.469L400,760L585.625,690.469L561.563,41.125L400,64.203L238.438,41.125ZM100,139.063C43.75,139.063 43.75,260.938 100,260.938L114.859,260.938L135.172,200L114.859,139.063L100,139.063ZM685.156,139.063L664.844,200L685.156,260.938L700,260.938C756.25,260.938 756.25,139.063 700,139.063L685.156,139.063ZM300,175C313.715,175 325,186.285 325,200C325,213.715 313.715,225 300,225C286.285,225 275,213.715 275,200C275,186.285 286.285,175 300,175ZM500,175C513.715,175 525,186.285 525,200C525,213.715 513.715,225 500,225C486.285,225 475,213.715 475,200C475,186.285 486.285,175 500,175ZM160,185.938L163.281,195.625L164.844,200L160.156,214.063L203.906,214.063L205,185.938L160,185.938ZM595,185.938L596.094,214.063L640,214.063L636.719,204.375L635.156,200L639.844,185.938L595,185.938ZM93.75,339.063C37.5,339.063 37.5,460.938 93.75,460.938L108.609,460.938L128.922,400L108.609,339.063L93.75,339.063ZM691.406,339.063L671.094,400L691.406,460.938L706.25,460.938C762.5,460.938 762.5,339.063 706.25,339.063L691.406,339.063ZM300,375C313.715,375 325,386.285 325,400C325,413.715 313.715,425 300,425C286.285,425 275,413.715 275,400C275,386.285 286.285,375 300,375ZM500,375C513.715,375 525,386.285 525,400C525,413.715 513.715,425 500,425C486.285,425 475,413.715 475,400C475,386.285 486.285,375 500,375ZM153.813,385.938L157.031,395.625L158.594,400L153.906,414.063L196.563,414.063L197.656,385.938L153.813,385.938ZM602.344,385.938L603.438,414.063L646.25,414.063L642.969,404.375L641.406,400L646.094,385.938L602.344,385.938ZM87.5,539.063C31.25,539.063 31.25,660.938 87.5,660.938L102.359,660.938L122.672,600L102.359,539.063L87.5,539.063ZM697.656,539.063L677.344,600L697.656,660.938L712.5,660.938C768.75,660.938 768.75,539.063 712.5,539.063L697.656,539.063ZM300,575C313.715,575 325,586.285 325,600C325,613.715 313.715,625 300,625C286.285,625 275,613.715 275,600C275,586.285 286.285,575 300,575ZM500,575C513.715,575 525,586.285 525,600C525,613.715 513.715,625 500,625C486.285,625 475,613.715 475,600C475,586.285 486.285,575 500,575ZM147.609,585.938L150.844,595.625L152.328,600L147.641,614.063L189.219,614.063L190.156,585.938L147.609,585.938ZM609.844,585.938L610.781,614.063L652.5,614.063L649.219,604.375L647.656,600L652.344,585.938L609.844,585.938Z" style="fill:rgb(222,222,222);fill-rule:nonzero;"/>
    </g>
</svg>
