<?xml version="1.0" encoding="UTF-8" standalone="no"?>
<!DOCTYPE svg PUBLIC "-//W3C//DTD SVG 1.1//EN" "http://www.w3.org/Graphics/SVG/1.1/DTD/svg11.dtd">
<svg width="100%" height="100%" viewBox="0 0 100 100" version="1.1" xmlns="http://www.w3.org/2000/svg" xmlns:xlink="http://www.w3.org/1999/xlink" xml:space="preserve" xmlns:serif="http://www.serif.com/" style="fill-rule:evenodd;clip-rule:evenodd;stroke-linejoin:round;">
    <g id="Section" transform="matrix(0.124998,0,0,0.124998,0.000876138,-3.55271e-15)">
        <path d="M200,400C200,427.2 205.067,453.067 215.2,477.6C225.333,502.133 239.733,523.467 258.4,541.6C277.067,559.733 298.667,574.133 323.2,584.8C347.733,595.467 373.333,600.533 400,600C413.867,600 425.6,605.067 435.2,615.2C444.8,625.333 449.867,637.067 450.4,650.4C450.933,663.733 445.867,675.467 435.2,685.6C424.533,695.733 412.8,700.533 400,700C387.2,699.467 375.467,694.667 364.8,685.6C354.133,676.533 349.333,664.8 350.4,650.4L250.4,650.4C250.4,692 264.8,727.2 293.6,756C322.4,784.8 357.867,799.467 400,800C442.133,800.533 477.6,785.867 506.4,756C535.2,726.133 549.867,690.933 550.4,650.4C550.4,616.8 540,586.667 519.2,560C544.267,541.333 564,518.133 578.4,490.4C592.8,462.667 600,432.533 600,400C600,373.333 594.933,347.733 584.8,323.2C574.667,298.667 560.267,277.333 541.6,259.2C522.933,241.067 501.333,226.667 476.8,216C452.267,205.333 426.667,200 400,200C386.133,200 374.4,195.2 364.8,185.6C355.2,176 350.4,164.267 350.4,150.4C350.4,136.533 355.2,124.8 364.8,115.2C374.4,105.6 386.133,100.533 400,100C413.867,99.467 425.6,104.533 435.2,115.2C444.8,125.867 449.867,137.6 450.4,150.4L550.4,150.4C550.4,108.8 535.733,73.333 506.4,44C477.067,14.667 441.6,-0 400,-0C358.4,-0 322.933,14.667 293.6,44C264.267,73.333 249.867,108.8 250.4,150.4C250.4,182.933 260.533,213.067 280.8,240.8C255.733,258.933 236,282.133 221.6,310.4C207.2,338.667 200,368.533 200,400ZM300,400C300,372.8 309.867,349.333 329.6,329.6C349.333,309.867 372.8,300 400,300C427.2,300 450.667,309.867 470.4,329.6C490.133,349.333 500,372.8 500,400C500,427.2 490.133,450.933 470.4,471.2C450.667,491.467 427.2,501.067 400,500C372.8,498.933 349.333,489.333 329.6,471.2C309.867,453.067 300,429.333 300,400Z" style="fill-rule:nonzero;stroke:rgb(222,222,222);stroke-width:38.1px;"/>
    </g>
</svg>
