<?xml version="1.0" encoding="UTF-8" standalone="no"?>
<!DOCTYPE svg PUBLIC "-//W3C//DTD SVG 1.1//EN" "http://www.w3.org/Graphics/SVG/1.1/DTD/svg11.dtd">
<svg width="100%" height="100%" viewBox="0 0 100 100" version="1.1" xmlns="http://www.w3.org/2000/svg" xmlns:xlink="http://www.w3.org/1999/xlink" xml:space="preserve" xmlns:serif="http://www.serif.com/" style="fill-rule:evenodd;clip-rule:evenodd;stroke-linejoin:round;">
    <g id="Stem" transform="matrix(2,0,0,2,-10,-10)">
        <g transform="matrix(0.076923,0,0,0.076923,-0.769205,-0.769225)">
            <path d="M400,725C335.72,725 272.886,705.94 219.44,670.227C165.994,634.517 124.338,583.757 99.739,524.373C75.141,464.987 68.704,399.64 81.245,336.597C93.785,273.552 124.738,215.643 170.19,170.19C215.642,124.738 273.552,93.785 336.597,81.245C399.64,68.705 464.987,75.141 524.373,99.739C583.757,124.338 634.517,165.994 670.227,219.44C705.94,272.886 725,335.72 725,400C724.91,486.17 690.643,568.783 629.713,629.713C568.783,690.643 486.167,724.913 400,725ZM400,125C345.61,125 292.442,141.129 247.218,171.346C201.995,201.563 166.747,244.513 145.933,294.762C125.119,345.013 119.673,400.307 130.284,453.65C140.895,506.993 167.086,555.997 205.546,594.453C244.005,632.913 293.005,659.107 346.35,669.717C399.693,680.327 454.987,674.88 505.237,654.067C555.487,633.253 598.437,598.007 628.653,552.783C658.87,507.56 675,454.39 675,400C674.913,327.093 645.91,257.197 594.357,205.643C542.803,154.09 472.907,125.088 400,125Z" style="fill-rule:nonzero;stroke:rgb(222,222,222);stroke-width:32.5px;"/>
        </g>
        <g transform="matrix(0.076923,0,0,0.076923,-0.769205,-0.769225)">
            <path d="M275.667,556.667C269.338,556.603 263.262,554.173 258.636,549.853C254.009,545.537 251.166,539.643 250.667,533.333L250.667,421C250.667,414.37 253.3,408.01 257.989,403.323C262.677,398.633 269.036,396 275.667,396C282.297,396 288.656,398.633 293.344,403.323C298.033,408.01 300.667,414.37 300.667,421L300.667,533.333C300.243,539.67 297.423,545.61 292.78,549.943C288.137,554.277 282.018,556.68 275.667,556.667Z" style="fill-rule:nonzero;stroke:rgb(222,222,222);stroke-width:32.5px;"/>
        </g>
        <g transform="matrix(0.076923,0,0,0.076923,-0.769205,-0.769225)">
            <path d="M400,556.667C393.397,556.58 387.087,553.917 382.417,549.25C377.747,544.58 375.087,538.27 375,531.667L375,268.333C375,261.703 377.633,255.344 382.323,250.655C387.01,245.967 393.37,243.333 400,243.333C406.63,243.333 412.99,245.967 417.677,250.655C422.367,255.344 425,261.703 425,268.333L425,533.333C424.5,539.643 421.657,545.537 417.03,549.853C412.403,554.173 406.33,556.603 400,556.667Z" style="fill-rule:nonzero;stroke:rgb(222,222,222);stroke-width:32.5px;"/>
        </g>
        <g transform="matrix(0.076923,0,0,0.076923,-0.769205,-0.769225)">
            <path d="M524.333,556.667C518.097,556.513 512.143,554.037 507.643,549.72C503.14,545.4 500.413,539.557 500,533.333L500,360.333C500,353.703 502.633,347.343 507.323,342.657C512.01,337.967 518.37,335.333 525,335.333C531.63,335.333 537.99,337.967 542.677,342.657C547.367,347.343 550,353.703 550,360.333L550,533.333C549.493,539.757 546.553,545.747 541.787,550.083C537.017,554.417 530.777,556.77 524.333,556.667Z" style="fill-rule:nonzero;stroke:rgb(222,222,222);stroke-width:32.5px;"/>
        </g>
    </g>
</svg>
