<?xml version="1.0" encoding="UTF-8" standalone="no"?>
<!DOCTYPE svg PUBLIC "-//W3C//DTD SVG 1.1//EN" "http://www.w3.org/Graphics/SVG/1.1/DTD/svg11.dtd">
<svg width="100%" height="100%" viewBox="0 0 100 100" version="1.1" xmlns="http://www.w3.org/2000/svg" xmlns:xlink="http://www.w3.org/1999/xlink" xml:space="preserve" xmlns:serif="http://www.serif.com/" style="fill-rule:evenodd;clip-rule:evenodd;stroke-linejoin:round;">
    <g id="Tape" transform="matrix(3.25521,0,0,3.25521,-2.08333,-2.08333)">
        <path d="M16,31.36C7.53,31.36 0.64,24.47 0.64,16C0.64,7.53 7.53,0.64 16,0.64C24.47,0.64 31.36,7.53 31.36,16C31.36,24.47 24.47,31.36 16,31.36ZM16,1.36C7.927,1.36 1.36,7.927 1.36,16C1.36,24.072 7.927,30.64 16,30.64C24.072,30.64 30.64,24.073 30.64,16C30.64,7.927 24.072,1.36 16,1.36ZM20.666,27.416C20.62,27.416 20.574,27.407 20.53,27.39C20.442,27.354 20.371,27.284 20.334,27.196L18.001,21.668C17.924,21.485 18.01,21.274 18.192,21.196C19.544,20.625 20.642,19.52 21.208,18.166C21.244,18.078 21.314,18.008 21.403,17.972C21.491,17.937 21.591,17.936 21.678,17.973L27.214,20.287C27.302,20.324 27.372,20.394 27.408,20.482C27.444,20.571 27.444,20.67 27.407,20.757C26.167,23.719 23.761,26.136 20.805,27.387C20.762,27.406 20.714,27.416 20.666,27.416ZM18.801,21.709L20.856,26.578C23.379,25.413 25.446,23.339 26.6,20.809L21.724,18.77C21.106,20.039 20.065,21.085 18.801,21.709ZM16,20.36C13.596,20.36 11.64,18.404 11.64,16C11.64,13.596 13.596,11.64 16,11.64C18.404,11.64 20.36,13.596 20.36,16C20.36,18.404 18.404,20.36 16,20.36ZM16,12.36C13.993,12.36 12.36,13.993 12.36,16C12.36,18.007 13.993,19.64 16,19.64C18.007,19.64 19.64,18.007 19.64,16C19.64,13.993 18.007,12.36 16,12.36ZM16,18.36C14.699,18.36 13.64,17.301 13.64,16C13.64,14.699 14.699,13.64 16,13.64C17.302,13.64 18.36,14.699 18.36,16C18.36,17.302 17.302,18.36 16,18.36ZM16,14.36C15.096,14.36 14.36,15.096 14.36,16C14.36,16.904 15.096,17.64 16,17.64C16.904,17.64 17.64,16.905 17.64,16C17.64,15.095 16.904,14.36 16,14.36ZM10.46,14.056C10.413,14.056 10.366,14.047 10.321,14.028L4.785,11.714C4.697,11.677 4.627,11.607 4.591,11.519C4.555,11.431 4.555,11.331 4.592,11.243C5.831,8.283 8.237,5.866 11.193,4.613C11.28,4.574 11.38,4.575 11.469,4.611C11.557,4.647 11.628,4.716 11.665,4.804L13.998,10.332C14.075,10.515 13.99,10.726 13.807,10.804C12.455,11.377 11.357,12.481 10.792,13.835C10.755,13.923 10.685,13.993 10.597,14.029C10.553,14.047 10.506,14.056 10.46,14.056ZM5.401,11.191L10.276,13.229C10.894,11.961 11.934,10.916 13.199,10.291L11.144,5.422C8.62,6.587 6.554,8.662 5.401,11.191Z" style="fill:rgb(222,222,222);fill-rule:nonzero;stroke:rgb(222,222,222);stroke-width:0.77px;"/>
    </g>
</svg>
