<?xml version="1.0" encoding="UTF-8" standalone="no"?>
<!DOCTYPE svg PUBLIC "-//W3C//DTD SVG 1.1//EN" "http://www.w3.org/Graphics/SVG/1.1/DTD/svg11.dtd">
<svg width="100%" height="100%" viewBox="0 0 100 100" version="1.1" xmlns="http://www.w3.org/2000/svg" xmlns:xlink="http://www.w3.org/1999/xlink" xml:space="preserve" xmlns:serif="http://www.serif.com/" style="fill-rule:evenodd;clip-rule:evenodd;stroke-linejoin:round;">
    <g id="VST" transform="matrix(2,0,0,2,-10,-10)">
        <g transform="matrix(0.0625,0,0,0.0625,5,5)">
            <path d="M124.999,499.999L124.999,0L50.001,0C22.401,0 0,22.401 0,50.001L0,750.025C0,777.625 22.401,800 50.001,800L175,800C202.6,800 225,777.625 225,750.025L225,525.002L149.999,525.002C136.201,524.999 124.999,513.823 124.999,499.999ZM425,499.999L425,0L375,0L375,499.999C375,513.823 363.824,524.999 349.999,524.999L274.998,524.999L274.998,750.022C274.998,777.622 297.399,799.997 324.999,799.997L474.998,799.997C502.598,799.997 524.999,777.622 524.999,750.022L524.999,524.999L449.998,524.999C436.174,524.999 425,513.823 425,499.999ZM749.999,0L674.998,0L674.998,499.999C674.998,513.823 663.822,524.999 649.998,524.999L575,524.999L575,750.022C575,777.622 597.4,799.997 625,799.997L749.999,799.997C777.599,799.997 800,777.622 800,750.022L800,50.001C799.997,22.401 777.599,0 749.999,0Z" style="fill:rgb(222,222,222);fill-rule:nonzero;stroke:black;stroke-width:20px;"/>
        </g>
        <g transform="matrix(0.0625,0,0,0.0625,5,5)">
            <path d="M474.998,0.026L474.998,450.001C474.998,463.825 486.174,475.001 499.999,475.001L599.997,475.001C613.821,475.001 624.998,463.825 624.998,450.001L624.998,0.026L474.998,0.026ZM175,449.998C175,463.822 186.199,474.998 200,474.998L299.999,474.998C313.797,474.998 324.999,463.822 324.999,449.998L324.999,0.026L175,0.026L175,449.998Z" style="fill-rule:nonzero;stroke:rgb(222,222,222);stroke-width:20px;"/>
        </g>
    </g>
</svg>
