<?xml version="1.0" encoding="UTF-8" standalone="no"?>
<!DOCTYPE svg PUBLIC "-//W3C//DTD SVG 1.1//EN" "http://www.w3.org/Graphics/SVG/1.1/DTD/svg11.dtd">
<svg width="100%" height="100%" viewBox="0 0 100 100" version="1.1" xmlns="http://www.w3.org/2000/svg" xmlns:xlink="http://www.w3.org/1999/xlink" xml:space="preserve" xmlns:serif="http://www.serif.com/" style="fill-rule:evenodd;clip-rule:evenodd;stroke-linejoin:round;">
    <g transform="matrix(0.168944,0,0,0.168944,-16.8944,-16.8944)">
        <path
            d="M234.993,234.993L235.327,234.993M350.393,100L260,100C203.995,100 175.992,100 154.601,110.899C135.785,120.487 120.487,135.785 110.899,154.601C100,175.992 100,203.995 100,260L100,350.393C100,374.85 100,387.08 102.763,398.59C105.213,408.793 109.253,418.547 114.736,427.497C120.92,437.587 129.568,446.233 146.863,463.53L303.53,620.197C343.13,659.797 362.933,679.6 385.763,687.017C405.85,693.543 427.483,693.543 447.57,687.017C470.4,679.6 490.203,659.797 529.803,620.197L620.197,529.803C659.797,490.203 679.6,470.4 687.017,447.57C693.543,427.483 693.543,405.85 687.017,385.763C679.6,362.933 659.797,343.13 620.197,303.53L463.53,146.863C446.233,129.568 437.587,120.92 427.497,114.736C418.547,109.253 408.793,105.213 398.59,102.763C387.08,100 374.85,100 350.393,100ZM251.66,234.993C251.66,244.198 244.198,251.66 234.993,251.66C225.789,251.66 218.327,244.198 218.327,234.993C218.327,225.789 225.789,218.327 234.993,218.327C244.198,218.327 251.66,225.789 251.66,234.993Z"
            style="fill-rule:nonzero;stroke:rgb(111,111,111);fill:rgb(11,11,11);stroke-width:20px;"/>
    </g>
</svg>
