<?xml version="1.0" encoding="UTF-8" standalone="no"?>
<!DOCTYPE svg PUBLIC "-//W3C//DTD SVG 1.1//EN" "http://www.w3.org/Graphics/SVG/1.1/DTD/svg11.dtd">
<svg width="100%" height="100%" viewBox="0 0 100 100" version="1.1" xmlns="http://www.w3.org/2000/svg" xmlns:xlink="http://www.w3.org/1999/xlink" xml:space="preserve" xmlns:serif="http://www.serif.com/" style="fill-rule:evenodd;clip-rule:evenodd;stroke-linejoin:round;">
    <g transform="matrix(3.40759,0,0,3.40759,-1.11372,0.87902)">
        <g id="Head" transform="matrix(0.0292969,0,0,0.0292969,0,0)">
            <path id="rect31082" d="M128.893,44.998L94.474,504.096L128.893,963.195L903.718,963.195L938.137,504.096L903.718,44.998L128.893,44.998Z" style="fill:rgb(170,68,0);stroke:rgb(244,227,215);stroke-width:10.87px;"/>
            <g id="g2278" transform="matrix(21.5383,0,0,21.958,-1972.28,-2505.33)">
                <path id="path1870" d="M115.308,157.582L115.308,116.377L124.216,116.464C129.115,116.512 133.137,116.567 133.153,116.586C133.169,116.605 133.533,121.215 133.962,126.829L134.742,137.038L134.096,145.538C133.741,150.214 133.382,154.821 133.299,155.776L133.149,157.513L115.308,157.582Z" style="fill:rgb(160,90,44);"/>
                <path id="path1872" d="M100.542,157.451L97.869,157.38L97.635,154.172C97.506,152.408 97.162,147.84 96.872,144.021L96.343,137.077L97.074,127.317C97.476,121.949 97.838,117.301 97.879,116.989L97.952,116.421L115.308,116.421L115.308,157.58L109.261,157.551C105.936,157.535 102.012,157.49 100.542,157.451Z" style="fill:rgb(200,113,55);"/>
            </g>
        </g>
        <g id="Fire" transform="matrix(0.0292969,0,0,0.0292969,0,0)">
            <path id="path4" d="M593.579,105.515C595.091,90.941 588.579,78.983 580.579,69.875C580.579,87.893 575.079,94.229 563.079,94.229C555.079,94.229 546.829,89.477 546.829,81.359C546.829,74.033 553.079,60.767 553.079,46.511C553.079,32.255 547.079,17.009 522.579,5.723C528.079,17.207 530.329,26.909 530.329,34.829C530.329,55.817 514.329,65.321 500.079,65.321C488.579,65.321 476.579,59.381 476.579,42.155C468.829,48.887 465.329,56.609 465.329,64.331C465.329,76.607 473.829,87.497 473.829,97.397C473.829,105.515 465.579,110.267 457.579,110.267C443.329,110.267 439.079,100.169 439.079,83.537C434.829,89.279 431.079,100.565 431.079,110.267C431.079,139.175 471.5,189.775 510,189.775C477.5,180.073 462.832,150.442 475.973,122.987C483.973,142.038 486.537,145.518 490.053,143.61C510.969,132.26 487.405,118.129 521.792,101.35C512.74,117.334 507.942,146.072 525.008,146.171C535.008,146.171 536.442,132.867 540.442,119.403C554.574,144.209 541.25,177.697 510,189.775C558.75,183.439 590,140 593.579,105.515Z" style="fill:rgb(255,137,0);fill-rule:nonzero;"/>
        </g>
        <g id="Facemask" transform="matrix(0.0292969,0,0,0.0292969,0,0)">
            <path id="path1260-6" d="M824.717,16.013C733.122,29.868 512.498,201.9 512.498,201.9L512.67,250.526C516.196,247.75 740.03,71.977 824.721,71.977C887.68,71.977 942.547,101.715 966.64,156.967C974.407,152.574 979.275,143.897 979.275,134.434L979.275,112.722C979.275,75.694 933.572,-0.449 824.721,16.013L824.717,16.013Z" style="fill:rgb(80,45,22);stroke:rgb(233,198,175);stroke-width:18.9px;stroke-linejoin:miter;stroke-miterlimit:10;"/>
            <path id="path1268-6" d="M512.498,250.659C512.498,250.659 739.355,71.977 824.717,71.977C910.079,71.977 979.271,126.771 979.271,225.459L979.271,353.113L512.845,353.113L512.498,250.659Z" style="fill:rgb(80,45,22);stroke:rgb(233,198,175);stroke-width:7.56px;stroke-linejoin:miter;stroke-miterlimit:10;"/>
            <path id="path1276-2" d="M512.498,328.504C512.498,328.504 730.85,149.822 813.012,149.822C895.162,149.822 961.768,204.628 961.768,303.304L961.768,430.971L512.834,430.971L512.498,328.504Z" style="fill:rgb(80,45,22);stroke:rgb(233,198,175);stroke-width:7.56px;stroke-miterlimit:10;"/>
            <path id="path1334-1" d="M512.498,419.055L597.099,597.737L847.165,597.737C938.671,597.737 1012.84,517.744 1012.84,419.055C1012.84,320.379 938.671,240.385 847.165,240.385C755.671,240.385 512.498,419.055 512.498,419.055Z" style="fill:rgb(80,45,22);stroke:rgb(233,198,175);stroke-width:18.9px;stroke-miterlimit:10;"/>
            <path id="path1338-1" d="M560.461,419.055C560.461,419.055 734.196,546.721 799.571,546.721C864.947,546.721 917.935,489.563 917.935,419.055C917.935,348.56 864.947,291.401 799.571,291.401C734.196,291.401 560.461,419.055 560.461,419.055Z" style="fill:rgb(49,20,21);stroke:rgb(244,227,215);stroke-width:7.56px;stroke-linejoin:miter;stroke-miterlimit:10;"/>
            <rect id="rect31515" x="512.487" y="201.888" width="0.36" height="213.647" style="fill:none;stroke:rgb(244,227,215);stroke-width:22.29px;stroke-miterlimit:10;"/>
            <path id="path1260-6-5" d="M199.282,16.013C290.877,29.868 511.5,201.9 511.5,201.9L511.328,250.526C507.803,247.75 283.968,71.977 199.277,71.977C136.319,71.977 81.451,101.715 57.358,156.967C49.591,152.574 44.724,143.897 44.724,134.434L44.724,112.722C44.724,75.694 90.426,-0.449 199.277,16.013L199.282,16.013Z" style="fill:rgb(120,68,33);stroke:rgb(233,198,175);stroke-width:18.9px;stroke-linejoin:miter;stroke-miterlimit:10;"/>
            <path id="path1268-6-7" d="M511.5,250.659C511.5,250.659 284.644,71.977 199.282,71.977C113.919,71.977 44.728,126.771 44.728,225.459L44.728,353.113L511.153,353.113L511.5,250.659Z" style="fill:rgb(120,68,33);stroke:rgb(233,198,175);stroke-width:7.56px;stroke-linejoin:miter;stroke-miterlimit:10;"/>
            <path id="path1276-2-8" d="M511.5,328.504C511.5,328.504 293.149,149.822 210.987,149.822C128.837,149.822 62.23,204.628 62.23,303.304L62.23,430.971L511.164,430.971L511.5,328.504Z" style="fill:rgb(120,68,33);stroke:rgb(233,198,175);stroke-width:7.56px;stroke-miterlimit:10;"/>
            <path id="path1334-1-6" d="M511.5,419.055L426.899,597.737L176.833,597.737C85.328,597.737 11.156,517.744 11.156,419.055C11.156,320.379 85.328,240.385 176.833,240.385C268.328,240.385 511.5,419.055 511.5,419.055Z" style="fill:rgb(120,68,33);stroke:rgb(233,198,175);stroke-width:18.9px;stroke-miterlimit:10;"/>
            <path id="path1338-1-67" d="M463.537,419.055C463.537,419.055 289.803,546.721 224.427,546.721C159.051,546.721 106.064,489.563 106.064,419.055C106.064,348.56 159.051,291.401 224.427,291.401C289.803,291.401 463.537,419.055 463.537,419.055Z" style="fill:rgb(80,45,22);stroke:rgb(244,227,215);stroke-width:7.56px;stroke-linejoin:miter;stroke-miterlimit:10;"/>
            <rect id="rect31515-8" x="513.152" y="201.888" width="0.36" height="213.647" style="fill:none;stroke:rgb(233,198,175);stroke-width:22.29px;stroke-miterlimit:10;"/>
        </g>
        <g id="Happy-Mouth" serif:id="Happy Mouth" transform="matrix(0.0292969,0,0,0.0292969,0,0)">
            <path id="path310-4-4" d="M955.458,790.934C944.602,867.069 895.723,911.527 837.831,948.512C774.085,989.265 697.57,976.306 627.43,959.255C598.585,952.23 571.113,941.334 541.757,941.315C509.962,941.294 479.043,942.979 447.763,949.968C403.444,959.882 355.082,978.604 309.53,975.928C269.837,973.587 227.306,960.198 192.074,940.769C134.114,908.807 86.865,850.415 75.774,781.424C64.676,712.442 95.253,634.967 153.985,604.298C206.926,576.649 270.119,589.468 325.642,610.088C381.165,630.716 435.853,658.915 494.625,660.848C556.797,662.892 616.035,635.326 674.907,613.552C733.788,591.796 799.252,575.604 857.169,599.823C925.389,628.362 966.57,713.108 955.458,790.934" style="fill:rgb(244,227,215);stroke:rgb(244,227,215);stroke-width:30px;stroke-linejoin:miter;"/>
            <path id="path1880-4" d="M746.279,598.748C724.589,602.691 680.772,617.135 632.386,636.29C581.93,656.266 548.32,667.091 521.128,672.125L510.338,674.123L510.338,938.767L541.269,940.358C559.98,941.319 584.366,945.127 602.992,949.994C651.891,962.772 687.558,968.117 724.699,968.23C777.467,968.392 806.996,957.726 853.744,921.621C910.132,878.071 939.061,825.154 939.061,765.56C939.061,689.749 890.43,619.551 825.287,601.33C809.541,596.927 764.414,595.452 746.279,598.749L746.279,598.748Z" style="fill:rgb(80,45,22);"/>
            <path id="path1882-2" d="M171.113,613.847C124.407,627.335 86.626,671.598 74.437,727.109C68.643,753.497 69.044,776.54 75.789,804.86C97.156,894.569 180.197,962.587 285.697,976.792C315.266,980.774 337.997,977.648 398.122,961.337C443.322,949.073 463.914,944.721 493.793,941.113L510.338,939.116L510.338,673.842L482.882,673.842C445.756,673.842 422.168,668.195 347.538,641.44C312.596,628.914 273.285,616.48 260.181,613.811C230.907,607.848 191.834,607.864 171.113,613.857L171.113,613.847Z" style="fill:rgb(120,68,33);"/>
            <path id="path310-4-8-5" d="M871.985,767.932L706.076,767.932L706.076,652.789C733.483,649.602 760.973,649.797 786.899,656.959C844.235,672.804 880.018,721.83 872.118,767.454C872.097,767.616 872.011,767.764 871.989,767.933L871.985,767.932Z" style="fill:rgb(233,198,175);"/>
            <path id="path31075-1" d="M706.076,876.743L706.076,786.129L866.41,786.129C852.137,819.797 817.373,841.995 776.874,860.995C754.958,871.285 730.813,875.279 706.076,876.743Z" style="fill:rgb(233,198,175);"/>
            <path id="path31019-5" d="M681.397,767.932L523.777,767.932L523.777,694.5C561.847,689.354 598.627,677.34 635.288,667.21C650.223,663.087 665.733,659.604 681.397,656.672L681.397,767.932Z" style="fill:rgb(233,198,175);"/>
            <path id="path31064-4" d="M681.397,877.531C654.784,876.965 627.781,873.883 601.763,869.849C577.609,866.096 554.533,860.062 530.075,860.41C527.952,860.433 525.891,860.618 523.777,860.662L523.777,786.13L681.397,786.13L681.397,877.531Z" style="fill:rgb(233,198,175);"/>
            <path id="path31008-3" d="M499.098,767.932L341.478,767.932L341.478,668.895C342.378,669.103 343.343,669.237 344.238,669.457C390.856,680.834 436.914,696.647 485.913,697.057C490.367,697.103 494.687,696.365 499.098,696.16L499.098,767.932Z" style="fill:rgb(244,227,215);"/>
            <path id="path31059-2" d="M341.478,883.29L341.478,786.129L499.098,786.129L499.098,861.64C483.323,862.54 467.624,863.916 451.91,866.623C416.527,872.724 378.196,883.385 341.478,883.29Z" style="fill:rgb(244,227,215);"/>
            <path id="path31014-3" d="M316.799,767.932L138.328,767.932C130.845,728.946 154.606,686.1 201.127,668.178C236.415,654.582 277.615,656.627 316.799,663.829L316.799,767.932Z" style="fill:rgb(244,227,215);"/>
            <path id="path31039-3" d="M316.799,881.152C289.826,878.471 262.423,873.096 238.724,864.377C195.596,848.509 160.344,820.132 145.193,786.129L316.799,786.129L316.799,881.152Z" style="fill:rgb(244,227,215);"/>
        </g>
        <g id="Eyes" transform="matrix(0.0292969,0,0,0.0292969,0,0)">
            <path id="path1338-1-6" d="M582.811,419.056C582.811,419.056 723.536,522.466 776.491,522.466C829.445,522.466 872.365,476.167 872.365,419.056C872.365,361.955 829.445,315.657 776.491,315.657C723.536,315.657 582.811,419.056 582.811,419.056Z" style="fill:rgb(255,153,0);"/>
            <path id="path1338-1-6-1" d="M441.187,419.056C441.187,419.056 300.462,522.466 247.508,522.466C194.553,522.466 151.634,476.167 151.634,419.056C151.634,361.955 194.553,315.657 247.508,315.657C300.462,315.657 441.187,419.056 441.187,419.056Z" style="fill:rgb(255,191,0);"/>
        </g>
    </g>
</svg>
